# xmcd
#
# Track frame offsets:
#	182
#	15045
#	29446
#	42107
#	55733
#	69627
#	80067
#	93655
#	106034
#	123702
#	136466
#	152194
#	166895
#	178630
#	193614
#	208014
#	222285
#	232740
#	247368
#	259542
#	274124
#	287861
#	301520
#
# Disc length: 4194 seconds
# Revision: 4
# Processed by: cddbd v1.5.2PL0 Copyright (c) Steve Scherf et al.
# Submitted via: dBpowerAMP V12.0
#
DISCID=42106017
DTITLE=John Lee Hooker - Vol. 4: Detroit 1950-1951
DYEAR=2003
DGENRE=Blues
TTITLE0=You've Got Another Man
TTITLE1=Grinder Man
TTITLE2=If You Need My Lovin' Baby
TTITLE3=I Met the Grindin' Man
TTITLE4=Nobody to Talk to Me (AKA Mean Old Train)
TTITLE5=Walkin' This Highway
TTITLE6=Wandering Blues
TTITLE7=House Rent Boogie
TTITLE8=Prison Bound
TTITLE9=Bumble Bee Blues
TTITLE10=Questionnaire Blues
TTITLE11=Real Gone Gal
TTITLE12=Little Boy Blue
TTITLE13=My Daddy Was a Jockey
TTITLE14=Mean Old Train
TTITLE15=Cat Fish
TTITLE16=Feed Her All Night
TTITLE17=How Long Must I Be Your Slave
TTITLE18=Ground Hog
TTITLE19=Four Women in My Life
TTITLE20=I'm Going Away
TTITLE21=Tease Me Baby
TTITLE22=I Need Lovin'
EXTD=
EXTT0=
EXTT1=
EXTT2=
EXTT3=
EXTT4=
EXTT5=
EXTT6=
EXTT7=
EXTT8=
EXTT9=
EXTT10=
EXTT11=
EXTT12=
EXTT13=
EXTT14=
EXTT15=
EXTT16=
EXTT17=
EXTT18=
EXTT19=
EXTT20=
EXTT21=
EXTT22=
PLAYORDER=
